<?xml version="1.0" standalone="no"?>
<!DOCTYPE svg PUBLIC "-//W3C//DTD SVG 20010904//EN"
 "http://www.w3.org/TR/2001/REC-SVG-20010904/DTD/svg10.dtd">
<svg version="1.0" xmlns="http://www.w3.org/2000/svg"
 width="300.000000pt" height="300.000000pt" viewBox="0 0 300.000000 300.000000"
 preserveAspectRatio="xMidYMid meet">
<metadata>
Created by Martin Dybal
</metadata>
<g transform="translate(0.000000,300.000000) scale(0.100000,-0.100000)"
fill="#000000" stroke="none">
<path d="M747 2993 c414 -2 1092 -2 1505 0 414 1 76 2 -752 2 -828 0 -1166 -1
-753 -2z"/>
<path d="M1315 2831 c-3 -6 -4 -20 0 -30 7 -22 -4 -53 -15 -46 -13 8 -40 -25
-40 -48 1 -17 4 -15 16 12 20 48 25 35 13 -38 -5 -35 -8 -65 -5 -68 2 -2 10
28 17 67 7 39 16 73 21 76 4 3 6 -1 4 -8 -3 -7 -7 -53 -10 -103 -3 -64 -2 -81
4 -60 11 33 17 242 8 251 -3 3 -9 0 -13 -5z"/>
<path d="M1392 2815 c-17 -37 -15 -41 9 -19 17 15 36 19 98 19 99 0 121 -7
150 -50 15 -23 27 -32 31 -25 5 8 9 6 13 -5 4 -9 3 -13 -3 -10 -8 5 -2 -134 6
-144 2 -2 4 20 5 50 1 30 4 65 9 79 6 22 8 23 15 7 4 -9 4 -28 1 -41 -3 -14
-2 -27 3 -30 11 -7 20 39 14 65 -3 10 -9 19 -14 19 -16 0 -23 4 -51 32 -38 37
-35 44 5 19 19 -11 36 -18 40 -15 12 12 69 -29 108 -79 23 -28 57 -65 76 -81
20 -16 41 -43 49 -60 7 -17 13 -25 14 -18 0 22 -20 55 -64 101 -37 40 -38 43
-11 26 l30 -18 -19 22 c-11 11 -25 20 -33 19 -7 -2 -23 12 -35 30 l-21 34 54
-33 c81 -49 116 -77 116 -93 0 -9 -4 -13 -9 -10 -5 3 -5 10 -2 16 4 7 2 8 -4
4 -8 -5 -3 -19 18 -44 23 -30 32 -53 41 -116 6 -43 8 -100 4 -126 -5 -35 -2
-56 10 -80 9 -17 19 -29 22 -27 3 3 -1 19 -9 35 -11 20 -13 46 -9 88 l6 59 6
-65 6 -65 1 68 c3 91 21 85 42 -14 15 -65 34 -119 44 -119 2 0 -5 24 -15 53
-22 67 -34 141 -22 134 5 -3 15 -32 22 -64 7 -32 24 -85 38 -117 17 -41 25
-81 26 -127 1 -37 5 -65 9 -63 3 2 9 -2 11 -8 3 -7 6 15 6 49 1 59 -22 150
-79 309 -22 61 -117 218 -157 259 -108 110 -334 195 -517 195 -68 0 -74 -2
-84 -25z m671 -322 c-4 -11 -2 -14 5 -9 8 5 10 1 5 -10 -4 -11 -3 -15 5 -10
11 7 32 -22 32 -45 0 -8 -7 -5 -20 6 -12 11 -20 13 -20 6 0 -7 -5 -9 -11 -5
-8 5 -8 8 0 13 8 6 7 18 -4 44 -13 31 -13 36 -1 31 9 -3 12 -12 9 -21z"/>
<path d="M1245 2820 c-3 -5 -22 -17 -42 -27 -20 -9 -53 -33 -75 -53 -21 -20
-38 -35 -38 -34 0 7 -58 -33 -103 -70 -89 -76 -166 -212 -190 -341 -25 -129
-30 -273 -11 -334 19 -65 38 -59 29 9 -4 28 -2 72 5 102 9 38 9 66 2 98 l-10
45 -1 -60 c0 -33 -4 -87 -10 -120 -8 -51 -9 -41 -5 60 6 131 23 243 34 225 4
-7 9 13 12 44 4 47 13 68 54 127 54 79 153 176 187 184 12 3 30 19 39 35 9 16
35 38 58 50 23 12 39 17 35 11 -10 -17 11 -13 25 4 7 8 20 15 29 14 9 0 11 -3
4 -5 -11 -5 -68 -74 -61 -74 2 0 23 18 47 40 39 36 48 69 15 56 -7 -3 -16 -1
-19 4 -3 4 1 11 7 13 9 4 10 6 1 6 -6 1 -15 -3 -18 -9z"/>
<path d="M1351 2784 c0 -11 3 -14 6 -6 3 7 2 16 -1 19 -3 4 -6 -2 -5 -13z"/>
<path d="M1480 2779 c-9 -16 -8 -26 5 -45 8 -13 18 -24 20 -24 3 0 -2 11 -10
24 -15 23 -15 25 6 40 21 14 23 13 43 -12 11 -15 23 -29 26 -32 3 -3 11 -16
17 -30 11 -24 12 -23 6 8 -7 40 -53 92 -82 92 -11 0 -25 -9 -31 -21z"/>
<path d="M1579 2781 c19 -5 26 -15 29 -41 5 -43 12 -53 12 -16 0 16 4 25 10
21 6 -3 8 -18 5 -33 -5 -24 -4 -24 5 -7 9 18 10 17 7 -7 -2 -15 0 -25 4 -22 5
3 9 -9 9 -27 0 -18 3 -30 6 -26 3 3 3 29 -1 58 -8 59 -50 110 -89 108 -19 -1
-19 -2 3 -8z"/>
<path d="M1510 2762 c0 -4 11 -23 24 -43 13 -19 26 -49 29 -65 l4 -29 2 29 c0
16 -10 49 -24 73 -25 41 -35 52 -35 35z"/>
<path d="M1173 2742 c-18 -14 -77 -92 -70 -92 1 0 26 25 55 55 52 54 59 72 15
37z"/>
<path d="M1365 2719 c-4 -6 -5 -12 -2 -15 2 -3 7 2 10 11 7 17 1 20 -8 4z"/>
<path d="M1229 2687 c-7 -16 -8 -39 -1 -68 l9 -44 4 68 c2 37 3 67 1 67 -1 0
-7 -11 -13 -23z"/>
<path d="M1785 2700 c5 -8 10 -30 11 -48 0 -18 6 -38 12 -44 9 -9 9 -3 2 23
-13 45 -12 49 5 19 8 -14 15 -34 15 -45 1 -18 2 -18 11 3 7 18 4 30 -11 51
-22 32 -60 66 -45 41z"/>
<path d="M1186 2685 c-3 -9 -5 -40 -4 -68 l1 -52 7 65 c7 70 6 80 -4 55z"/>
<path d="M1460 2697 c0 -5 5 -17 10 -27 6 -10 12 -58 15 -107 3 -48 7 -108 10
-133 l4 -45 -14 30 c-17 36 -20 11 -4 -33 6 -17 14 -52 19 -79 5 -31 7 13 4
122 -5 192 -10 230 -30 259 -8 11 -14 17 -14 13z"/>
<path d="M1760 2651 c0 -11 4 -22 9 -25 4 -3 6 6 3 19 -5 30 -12 33 -12 6z"/>
<path d="M1413 2595 c0 -33 2 -45 4 -27 2 18 2 45 0 60 -2 15 -4 0 -4 -33z"/>
<path d="M1642 2630 c-1 -14 3 -43 7 -65 6 -26 9 -31 9 -15 1 14 -3 43 -7 65
-6 26 -9 31 -9 15z"/>
<path d="M1160 2588 c0 -32 -3 -39 -10 -28 -7 10 -9 -19 -8 -90 0 -72 3 -92 7
-65 l7 40 12 -35 c9 -27 10 -28 5 -5 -4 17 -6 74 -4 128 1 53 -1 97 -4 97 -3
0 -5 -19 -5 -42z"/>
<path d="M1527 2613 c-4 -3 -7 -11 -7 -17 0 -6 5 -5 12 2 6 6 9 14 7 17 -3 3
-9 2 -12 -2z"/>
<path d="M1732 2573 c-1 -28 -5 -60 -8 -70 -5 -17 -5 -17 6 0 6 9 9 41 7 70
l-3 52 -2 -52z"/>
<path d="M1850 2605 c0 -8 9 -19 20 -25 11 -6 20 -19 20 -30 0 -10 5 -22 10
-25 21 -13 9 42 -15 68 -29 31 -35 33 -35 12z"/>
<path d="M1066 2595 c-3 -9 -6 -31 -5 -48 1 -28 2 -26 10 12 9 46 6 65 -5 36z"/>
<path d="M1387 2545 c3 -38 7 -72 9 -74 7 -8 2 94 -6 119 -5 15 -6 -4 -3 -45z"/>
<path d="M1766 2518 c2 -67 0 -82 -6 -53 l-7 40 -2 -52 c-1 -54 12 -79 23 -40
8 32 7 197 -1 197 -5 0 -7 -42 -7 -92z"/>
<path d="M1545 2590 c-3 -5 3 -10 14 -10 10 0 22 -6 24 -12 4 -10 6 -10 6 -1
1 17 -36 36 -44 23z"/>
<path d="M1353 2550 c0 -25 2 -35 4 -22 2 12 2 32 0 45 -2 12 -4 2 -4 -23z"/>
<path d="M1516 2564 c-11 -30 -5 -139 9 -164 15 -27 20 -54 8 -47 -5 3 -6 -27
-3 -66 l4 -72 6 65 c4 44 8 57 12 40 3 -14 4 -4 2 22 -2 26 1 50 5 52 4 3 6
20 4 38 -3 27 -1 29 6 13 5 -11 10 -49 11 -85 l2 -65 10 50 c7 38 6 58 -6 90
-9 22 -19 62 -22 89 -11 78 -28 28 -21 -63 l5 -76 -15 45 c-9 29 -12 64 -9 98
6 52 3 65 -8 36z"/>
<path d="M993 2558 c-15 -20 -25 -38 -20 -38 3 0 12 11 21 25 17 26 16 35 -1
13z"/>
<path d="M1123 2530 c0 -25 2 -35 4 -22 2 12 2 32 0 45 -2 12 -4 2 -4 -23z"/>
<path d="M1684 2555 c-3 -8 -4 -20 -2 -27 3 -7 7 -1 10 15 6 29 1 36 -8 12z"/>
<path d="M1452 2530 c0 -19 2 -27 5 -17 2 9 2 25 0 35 -3 9 -5 1 -5 -18z"/>
<path d="M1590 2540 c0 -5 7 -10 16 -10 8 0 12 5 9 10 -3 6 -10 10 -16 10 -5
0 -9 -4 -9 -10z"/>
<path d="M1993 2521 c0 -11 5 -18 9 -15 4 3 5 11 1 19 -7 21 -12 19 -10 -4z"/>
<path d="M1916 2488 c-10 -21 -16 -41 -13 -44 8 -9 38 47 35 65 -2 14 -8 7
-22 -21z"/>
<path d="M1605 2475 c2 -27 5 -88 5 -135 l2 -85 10 55 c9 55 7 101 -11 175
l-10 40 4 -50z"/>
<path d="M1707 2465 c14 -189 19 -234 25 -240 4 -4 5 26 2 67 -2 40 -4 93 -4
118 0 31 -3 41 -10 30 -6 -10 -10 -2 -13 30 -2 25 -2 23 0 -5z"/>
<path d="M992 2440 c-7 -41 -22 -96 -33 -123 -14 -34 -17 -52 -10 -65 9 -15
10 -14 11 8 0 14 6 34 14 45 16 24 40 150 34 185 -2 15 -8 -5 -16 -50z"/>
<path d="M1678 2427 c4 -120 9 -135 10 -32 1 50 -2 95 -6 102 -4 6 -6 -26 -4
-70z"/>
<path d="M1301 2484 c0 -11 3 -14 6 -6 3 7 2 16 -1 19 -3 4 -6 -2 -5 -13z"/>
<path d="M1859 2451 c-3 -32 -1 -47 6 -40 8 8 8 78 0 87 -2 2 -5 -19 -6 -47z"/>
<path d="M1190 2453 c0 -24 2 -43 4 -43 8 0 12 60 4 72 -4 8 -8 -4 -8 -29z"/>
<path d="M2001 2474 c0 -11 3 -14 6 -6 3 7 2 16 -1 19 -3 4 -6 -2 -5 -13z"/>
<path d="M880 2450 c-7 -13 -15 -73 -20 -134 -8 -116 2 -215 26 -270 16 -38
18 -14 3 34 -18 54 -20 266 -4 330 15 59 13 74 -5 40z"/>
<path d="M931 2433 c-6 -21 -11 -52 -11 -70 0 -17 -3 -40 -7 -50 -6 -13 -10
-6 -14 27 -3 27 -5 6 -5 -52 1 -53 4 -94 8 -92 3 2 8 -4 10 -13 2 -10 4 7 4
37 0 30 7 97 17 149 17 98 16 131 -2 64z"/>
<path d="M1098 2450 c-4 -14 -7 -61 -7 -105 l2 -80 8 80 c5 44 8 91 7 105 l-3
25 -7 -25z"/>
<path d="M1637 2435 c3 -22 7 -42 9 -44 8 -9 2 45 -6 64 -7 14 -8 8 -3 -20z"/>
<path d="M1933 2440 c-24 -30 -39 -60 -29 -60 8 0 60 79 55 84 -2 2 -14 -9
-26 -24z"/>
<path d="M1039 2443 c-4 -50 -1 -71 13 -97 l15 -29 0 44 c0 32 -2 38 -8 24 -7
-18 -8 -18 -10 5 -1 14 -1 35 0 48 1 12 -1 22 -4 22 -3 0 -6 -8 -6 -17z"/>
<path d="M1228 2416 c-5 -27 -7 -72 -7 -100 l1 -51 10 49 c5 27 8 72 6 100
l-3 51 -7 -49z"/>
<path d="M1264 2374 c0 -53 3 -77 7 -59 9 41 9 106 0 129 -4 10 -7 -22 -7 -70z"/>
<path d="M1306 2389 c-4 -39 -5 -73 -3 -76 3 -2 8 28 12 67 4 39 5 73 2 76 -2
3 -8 -27 -11 -67z"/>
<path d="M1343 2395 c0 -33 2 -45 4 -27 2 18 2 45 0 60 -2 15 -4 0 -4 -33z"/>
<path d="M1378 2310 c5 -144 12 -188 12 -74 0 38 2 94 5 124 3 38 2 47 -4 30
-8 -23 -9 -22 -13 15 -2 22 -2 -21 0 -95z"/>
<path d="M1970 2418 c-12 -13 -20 -35 -19 -52 1 -32 3 -29 13 17 4 15 10 25
15 23 5 -3 11 3 14 14 7 25 3 25 -23 -2z"/>
<path d="M2008 2396 c-5 -27 -8 -65 -7 -85 l1 -36 9 40 c6 22 9 60 7 85 l-3
45 -7 -49z"/>
<path d="M1786 2414 c-8 -22 -8 -44 2 -44 4 0 7 14 8 30 1 34 -1 37 -10 14z"/>
<path d="M1421 2378 c0 -13 4 -43 8 -68 8 -44 9 -44 10 23 0 39 -3 67 -9 67
-5 0 -10 -10 -9 -22z"/>
<path d="M1698 2339 c-1 -28 0 -53 3 -55 3 -1 7 21 8 51 3 69 -6 72 -11 4z"/>
<path d="M1976 2369 c-11 -54 -13 -79 -6 -79 4 0 10 21 14 47 6 48 1 73 -8 32z"/>
<path d="M1924 2336 c1 -35 5 -51 16 -53 10 -3 11 -2 3 4 -6 5 -14 29 -16 53
l-4 45 1 -49z"/>
<path d="M1825 2339 c-9 -17 -15 -37 -13 -45 2 -8 10 5 19 30 19 53 16 59 -6
15z"/>
<path d="M1882 2343 c-1 -17 -5 -40 -8 -50 -5 -17 -5 -17 6 0 6 9 9 32 7 50
l-4 32 -1 -32z"/>
<path d="M1652 2325 c0 -16 2 -22 5 -12 2 9 2 23 0 30 -3 6 -5 -1 -5 -18z"/>
<path d="M1770 2308 c1 -18 7 -44 16 -58 l15 -25 -8 25 c-4 14 -8 40 -8 58 0
17 -3 32 -7 32 -5 0 -8 -15 -8 -32z"/>
<path d="M2086 2299 c-5 -31 -2 -73 10 -132 20 -106 32 -107 15 -2 -7 41 -10
78 -8 82 2 5 1 28 -3 53 l-6 45 -8 -46z"/>
<path d="M1843 2300 c-14 -44 -26 -110 -19 -110 2 0 12 25 21 56 18 62 16 111
-2 54z"/>
<path d="M974 2274 c-5 -26 0 -58 17 -111 13 -42 25 -71 27 -65 2 6 -6 43 -18
82 -13 44 -19 83 -15 101 4 16 4 29 1 29 -3 0 -8 -16 -12 -36z"/>
<path d="M1632 2280 c0 -14 2 -19 5 -12 2 6 2 18 0 25 -3 6 -5 1 -5 -13z"/>
<path d="M1352 2265 c0 -16 2 -22 5 -12 2 9 2 23 0 30 -3 6 -5 -1 -5 -18z"/>
<path d="M1132 2245 c0 -16 2 -22 5 -12 2 9 2 23 0 30 -3 6 -5 -1 -5 -18z"/>
<path d="M1591 2244 c0 -11 3 -14 6 -6 3 7 2 16 -1 19 -3 4 -6 -2 -5 -13z"/>
<path d="M1562 2220 c0 -14 2 -19 5 -12 2 6 2 18 0 25 -3 6 -5 1 -5 -13z"/>
<path d="M1628 2210 c2 -16 6 -30 8 -30 2 0 4 14 4 30 0 17 -4 30 -8 30 -5 0
-7 -13 -4 -30z"/>
<path d="M2033 2205 c0 -22 2 -30 4 -17 2 12 2 30 0 40 -3 9 -5 -1 -4 -23z"/>
<path d="M1400 2183 c-3 -23 -2 -39 3 -34 5 5 7 24 5 42 -3 33 -4 33 -8 -8z"/>
<path d="M1467 2158 c-4 -37 -10 -76 -12 -85 -3 -10 2 -3 10 16 10 20 15 53
13 85 l-3 51 -8 -67z"/>
<path d="M2129 2203 c-3 -10 -1 -40 2 -68 6 -49 6 -49 7 18 2 65 -2 85 -9 50z"/>
<path d="M938 2193 c-3 -13 -2 -26 4 -29 5 -3 7 -16 4 -28 -2 -11 -1 -37 4
-56 7 -31 8 -28 8 25 0 33 -3 71 -7 85 -7 25 -7 25 -13 3z"/>
<path d="M1122 2140 c0 -19 2 -27 5 -17 2 9 2 25 0 35 -3 9 -5 1 -5 -18z"/>
<path d="M2072 2140 c0 -14 2 -19 5 -12 2 6 2 18 0 25 -3 6 -5 1 -5 -13z"/>
<path d="M1172 2100 c0 -14 2 -19 5 -12 2 6 2 18 0 25 -3 6 -5 1 -5 -13z"/>
<path d="M2153 2080 c0 -25 2 -35 4 -22 2 12 2 32 0 45 -2 12 -4 2 -4 -23z"/>
<path d="M2172 2070 c0 -19 2 -27 5 -17 2 9 2 25 0 35 -3 9 -5 1 -5 -18z"/>
<path d="M2106 2010 c17 -187 21 -250 18 -280 -2 -19 -8 -88 -15 -153 -12
-133 -28 -195 -71 -281 -28 -56 -29 -60 -16 -110 8 -30 13 -108 13 -191 0
-127 -3 -148 -28 -224 -16 -47 -39 -105 -52 -131 -58 -114 -208 -187 -364
-178 -114 7 -193 48 -302 157 -137 137 -202 279 -180 389 6 30 11 82 11 115
l0 59 -52 -44 c-28 -23 -53 -42 -55 -40 -20 16 -140 -100 -169 -163 -26 -60
-37 -70 -229 -215 -172 -130 -359 -291 -402 -347 -47 -59 -88 -139 -132 -256
-46 -121 -45 -117 -28 -117 11 0 28 40 87 201 19 52 60 120 46 76 -3 -11 -2
-16 4 -12 6 3 10 15 10 26 0 28 19 61 30 54 6 -3 7 0 5 8 -3 7 3 22 15 32 11
10 20 14 20 10 0 -5 33 22 73 59 99 93 112 104 102 87 -5 -10 -4 -12 4 -7 6 4
9 11 6 16 -3 4 2 13 10 20 8 7 15 9 15 5 0 -4 7 -2 15 5 8 7 12 16 10 21 -8
12 83 71 97 63 6 -4 8 -3 5 3 -4 6 1 17 10 24 14 12 16 12 9 -1 -4 -9 -1 -8 7
2 8 10 17 18 21 18 22 0 171 137 202 187 8 13 11 -36 10 -195 -1 -180 1 -215
14 -227 19 -17 81 -31 180 -40 41 -4 111 -17 155 -30 45 -13 103 -26 130 -30
28 -4 52 -11 55 -15 7 -10 142 -21 135 -11 -2 5 11 5 30 1 55 -12 135 -70 166
-119 27 -42 29 -43 29 -18 0 35 -70 106 -137 140 -67 34 -203 73 -298 85 -91
12 -320 27 -350 23 -19 -3 -19 -2 3 22 l23 25 -12 182 c-13 207 -10 267 20
336 24 55 68 95 58 52 -17 -69 -14 -75 7 -13 20 57 24 64 25 39 1 -17 -5 -49
-13 -70 -23 -67 -9 -141 50 -255 37 -72 62 -104 147 -186 76 -74 115 -104 152
-118 28 -10 55 -23 62 -28 7 -5 17 -6 22 -2 6 3 8 0 5 -9 -5 -13 -11 -13 -47
1 -68 24 -223 43 -352 41 l-120 -1 130 -7 c174 -10 266 -25 394 -66 119 -37
211 -94 229 -141 6 -15 13 -50 15 -78 3 -27 15 -80 28 -117 17 -54 26 -68 42
-68 18 0 19 5 14 63 -3 34 -9 73 -13 87 l-6 25 16 -22 c10 -13 19 -52 23 -90
4 -37 8 -62 11 -54 4 11 6 11 13 0 16 -26 30 4 19 41 -41 142 36 346 171 457
52 43 79 75 47 57 -7 -4 -2 5 11 19 13 15 39 32 58 38 29 9 38 9 51 -5 21 -20
4 -40 -29 -33 -22 4 -22 4 4 6 15 0 27 6 27 12 0 16 -81 2 -100 -17 -14 -15
-13 -16 3 -11 14 5 16 3 8 -12 -6 -10 -8 -20 -6 -22 2 -3 -9 -13 -26 -24 -16
-11 -32 -28 -35 -38 -3 -10 -17 -25 -30 -34 -14 -9 -32 -30 -41 -46 -8 -17
-25 -39 -37 -49 -14 -12 -16 -17 -7 -18 11 0 11 -4 -2 -18 -10 -10 -17 -27
-16 -38 0 -15 3 -13 13 9 7 15 22 34 34 43 12 8 22 22 22 30 0 18 24 44 40 44
6 0 8 5 5 10 -4 6 -11 8 -16 5 -5 -4 -9 -1 -9 4 0 6 13 11 30 11 16 0 29 3 28
7 -4 13 22 54 30 49 5 -3 14 0 22 6 12 8 12 9 -2 4 -10 -3 -18 -1 -18 5 0 5
18 9 40 7 29 -1 45 3 58 17 17 18 16 18 -12 1 -27 -17 -29 -17 -23 -1 4 9 7
19 7 21 0 2 9 4 21 4 26 0 83 56 73 71 -4 7 -12 1 -20 -17 -7 -16 -13 -23 -13
-16 -1 7 4 22 10 33 8 16 13 18 25 8 9 -8 18 -8 27 -1 6 5 32 13 57 17 65 10
85 24 35 25 -49 0 -117 18 -111 29 3 4 30 4 61 -1 59 -9 93 -6 122 11 20 12
24 10 -57 16 -53 3 -53 3 -38 27 21 35 12 68 -22 75 -20 3 -28 11 -27 23 1 15
5 16 20 8 24 -12 27 -9 16 21 -6 15 -14 21 -24 17 -20 -7 -19 0 6 40 21 35 33
41 44 24 3 -5 0 -8 -7 -5 -7 3 -19 -4 -26 -15 -12 -20 -6 -26 23 -20 6 1 5 -4
-2 -11 -9 -9 -8 -19 4 -43 l17 -31 6 25 c3 14 3 27 -2 28 -4 2 -8 8 -8 14 0
20 108 1 155 -27 57 -33 58 -40 3 -15 -24 11 -52 19 -63 19 -11 0 -2 -6 20
-13 22 -7 49 -17 61 -24 11 -6 26 -7 33 -2 9 5 27 -1 49 -16 19 -13 39 -24 44
-24 5 0 6 -4 3 -10 -3 -5 2 -10 12 -10 25 0 77 -56 93 -100 16 -45 22 -92 11
-86 -4 3 -6 -6 -3 -20 3 -14 -1 -49 -7 -78 -7 -28 -16 -134 -21 -236 -5 -102
-12 -202 -16 -222 -6 -36 -5 -38 19 -38 22 0 27 6 32 37 11 64 15 70 10 16 -3
-42 -1 -53 10 -53 12 0 15 19 15 100 0 60 4 100 10 100 6 0 10 5 10 12 0 6 -9
3 -20 -7 -11 -10 -20 -14 -20 -9 0 5 -4 4 -8 -3 -7 -11 -9 116 -2 187 l3 35 7
-35 c6 -31 8 -32 9 -8 0 15 6 39 11 55 9 25 9 26 -4 10 -14 -18 -15 -18 -25 0
-5 11 -8 28 -6 39 2 10 4 42 5 69 1 38 4 45 10 30 5 -11 9 -14 9 -7 1 7 -4 23
-10 35 -10 20 -10 20 4 7 8 -8 24 -47 36 -86 16 -54 18 -78 11 -104 -7 -24 -6
-38 5 -54 11 -14 15 -16 16 -6 0 8 7 -5 16 -30 9 -28 17 -100 20 -187 3 -79 9
-143 14 -143 11 0 12 357 1 362 -4 1 -22 53 -40 113 -38 126 -105 275 -136
303 -73 65 -394 226 -471 237 -73 10 -112 30 -170 84 -28 27 -70 58 -93 70
-22 11 -43 30 -47 40 -4 13 7 50 28 98 42 96 54 149 62 283 5 68 19 151 41
238 35 137 41 186 24 197 -6 4 -10 -10 -10 -35 0 -23 -8 -55 -17 -73 -9 -18
-20 -45 -24 -62 -5 -20 -7 -1 -7 55 1 59 -4 94 -14 115 l-16 30 4 -45z m13
-896 c31 -25 123 -167 162 -247 23 -46 65 -77 107 -77 26 -1 26 -1 7 -16 -23
-17 -62 -13 -99 12 -15 9 -55 75 -102 166 -58 114 -84 155 -108 169 -20 12
-25 19 -14 19 9 0 30 -12 47 -26z m-1124 -66 c-35 -62 -41 -144 -25 -342 14
-187 8 -219 -43 -221 -15 0 -31 4 -35 10 -4 5 -5 107 -2 225 5 210 6 216 33
272 25 50 83 116 93 105 3 -2 -7 -24 -21 -49z m1082 -52 c3 -47 9 -86 13 -86
4 0 5 -35 3 -77 -3 -53 -1 -73 5 -64 14 20 4 291 -12 322 -4 8 0 5 9 -6 9 -11
46 -78 81 -149 35 -72 74 -140 85 -153 22 -22 60 -38 109 -46 24 -3 24 -4 -5
-11 -16 -4 -75 -29 -130 -56 -98 -47 -177 -108 -302 -233 -46 -45 -103 -150
-103 -188 0 -16 -3 -20 -10 -13 -15 15 21 107 63 167 18 26 57 71 86 102 29
30 49 55 44 55 -14 -1 -134 -127 -167 -177 -24 -36 -38 -47 -54 -46 -12 2 -22
-1 -22 -6 0 -11 -93 38 -98 51 -2 4 -13 8 -23 8 -30 0 -12 20 19 21 25 2 25 2
4 6 -13 3 -36 0 -52 -6 -17 -5 -40 -6 -57 -1 -15 4 -26 9 -23 9 3 1 30 4 60 7
30 3 76 12 103 19 34 10 55 11 77 4 16 -6 35 -9 42 -6 7 3 4 6 -7 6 -11 1 -27
6 -35 11 -11 8 -7 9 15 4 23 -4 26 -3 15 5 -9 6 -10 11 -3 11 6 0 38 16 71 36
54 31 64 43 96 107 65 134 90 222 91 322 0 50 -3 106 -8 125 -5 25 -4 31 4 23
6 -6 14 -50 16 -97z m163 13 c0 -4 8 -6 18 -3 13 4 14 3 4 -4 -16 -11 26 -22
92 -23 22 0 35 -3 29 -6 -7 -2 -13 -11 -13 -19 0 -9 -4 -13 -8 -10 -5 3 -9
-11 -10 -31 -2 -51 -9 -51 -16 0 -5 32 -12 46 -26 50 -17 4 -17 3 -3 -42 9
-25 20 -54 24 -63 6 -11 5 -18 0 -18 -6 0 -24 29 -41 65 -17 35 -42 78 -56 95
-17 19 -20 28 -10 24 9 -3 16 -10 16 -15z m110 -349 c11 -7 5 -8 -20 -4 -43 8
-51 14 -19 14 13 0 31 -5 39 -10z m-135 -99 c-6 -5 -25 10 -25 20 0 5 6 4 14
-3 8 -7 12 -15 11 -17z m-22 -26 c-3 -9 -8 -14 -10 -11 -3 3 -2 9 2 15 9 16
15 13 8 -4z m-189 -67 c-17 -18 -42 -51 -56 -74 -33 -52 -78 -194 -72 -225 5
-23 5 -23 -10 -5 -20 24 -20 24 0 99 24 93 90 207 120 207 6 0 17 7 24 15 7 8
15 15 18 15 3 0 -8 -15 -24 -32z m-1684 -21 c0 -2 -12 -14 -27 -28 l-28 -24
24 28 c23 25 31 32 31 24z m1078 -32 c11 -10 -53 -9 -103 1 l-60 13 80 -6 c44
-3 81 -7 83 -8z m1539 -27 c-3 -7 -5 -2 -5 12 0 14 2 19 5 13 2 -7 2 -19 0
-25z m-1472 3 c17 -7 16 -9 -13 -16 -18 -4 -36 -4 -39 -1 -4 3 5 7 18 7 18 1
15 3 -11 9 -34 7 -34 7 -5 8 17 0 39 -3 50 -7z m296 -88 c13 -16 12 -17 -3 -4
-17 13 -22 21 -14 21 2 0 10 -8 17 -17z m49 -13 c-7 -13 -8 -33 -4 -53 5 -18
9 -48 9 -67 1 -19 5 -55 10 -80 4 -25 5 -43 2 -39 -13 11 -37 125 -38 179 -2
74 -1 82 11 75 6 -3 10 -1 10 6 0 7 3 10 6 7 3 -4 0 -16 -6 -28z"/>
<path d="M2100 1042 c0 -4 6 -16 13 -27 7 -11 21 -41 31 -67 10 -26 21 -50 26
-53 9 -5 -22 81 -46 127 -14 27 -24 36 -24 20z"/>
<path d="M2116 960 c3 -19 5 -48 5 -65 0 -25 1 -27 10 -12 7 12 6 31 -5 65
-12 38 -14 40 -10 12z"/>
<path d="M2135 813 c-14 -11 -15 -14 -4 -10 12 4 15 1 12 -12 -3 -11 1 -18 9
-18 10 0 13 9 10 29 -2 15 -5 28 -6 28 0 0 -10 -8 -21 -17z"/>
<path d="M2210 811 c0 -6 4 -13 10 -16 6 -3 7 1 4 9 -7 18 -14 21 -14 7z"/>
<path d="M2188 805 c-4 -4 -4 -15 1 -24 5 -9 7 -24 5 -35 -2 -13 0 -16 8 -8 8
8 8 22 2 42 -5 18 -12 29 -16 25z"/>
<path d="M2115 740 c-13 -5 -14 -9 -5 -9 8 0 24 4 35 9 13 5 14 9 5 9 -8 0
-24 -4 -35 -9z"/>
<path d="M2103 683 c-17 -2 -37 -12 -44 -21 -11 -14 -11 -15 1 -4 8 6 26 12
41 12 15 0 31 5 34 10 3 6 5 9 3 8 -2 0 -17 -3 -35 -5z"/>
<path d="M1906 522 c-4 -8 -22 -22 -40 -33 -32 -20 -29 -27 5 -9 24 13 24 3 2
-24 -9 -12 -2 -7 16 10 20 19 32 39 29 50 -3 15 -5 16 -12 6z"/>
<path d="M1806 413 c-6 -14 -5 -15 5 -6 7 7 10 15 7 18 -3 3 -9 -2 -12 -12z"/>
<path d="M832 2010 c0 -19 2 -27 5 -17 2 9 2 25 0 35 -3 9 -5 1 -5 -18z"/>
<path d="M1002 2000 c0 -14 2 -19 5 -12 2 6 2 18 0 25 -3 6 -5 1 -5 -13z"/>
<path d="M921 1994 c0 -11 3 -14 6 -6 3 7 2 16 -1 19 -3 4 -6 -2 -5 -13z"/>
<path d="M2152 1970 c0 -14 2 -19 5 -12 2 6 2 18 0 25 -3 6 -5 1 -5 -13z"/>
<path d="M932 1950 c0 -14 2 -19 5 -12 2 6 2 18 0 25 -3 6 -5 1 -5 -13z"/>
<path d="M1888 1953 c7 -3 16 -2 19 1 4 3 -2 6 -13 5 -11 0 -14 -3 -6 -6z"/>
<path d="M1787 1938 c-24 -7 -36 -15 -33 -23 2 -7 -6 -23 -20 -36 -14 -14 -23
-33 -23 -48 l2 -26 4 25 c5 27 30 60 46 60 6 0 3 -8 -5 -17 -20 -23 -35 -68
-19 -59 6 4 11 15 11 25 0 10 7 24 15 31 12 10 15 10 15 -3 0 -8 6 -20 13 -26
17 -14 52 21 44 43 -5 12 5 14 52 11 32 -1 68 -8 80 -14 34 -19 24 -5 -14 19
-28 17 -43 20 -82 15 -67 -9 -84 -15 -77 -26 3 -5 10 -7 15 -4 11 7 12 -15 1
-33 -6 -9 -11 -7 -19 10 -6 13 -11 27 -11 32 0 5 -6 12 -13 17 -11 7 9 14 86
32 16 4 15 5 -5 5 -14 0 -42 -5 -63 -10z"/>
<path d="M1720 1900 c-6 -11 -8 -20 -6 -20 3 0 10 9 16 20 6 11 8 20 6 20 -3
0 -10 -9 -16 -20z"/>
<path d="M812 1870 c0 -14 3 -34 8 -45 l9 -20 -1 20 c0 11 -4 31 -8 45 l-8 25
0 -25z"/>
<path d="M1861 1854 c-12 -27 -11 -28 4 -12 10 9 16 21 13 28 -2 7 -10 -1 -17
-16z"/>
<path d="M933 1825 c0 -27 2 -38 4 -22 2 15 2 37 0 50 -2 12 -4 0 -4 -28z"/>
<path d="M1443 1863 c3 -5 -19 -8 -48 -8 -45 0 -58 -5 -82 -27 -35 -33 -54
-37 -27 -6 19 22 19 22 -13 -1 -18 -12 -33 -27 -33 -33 0 -7 4 -7 13 1 8 6 17
8 20 4 4 -3 18 4 32 17 20 19 25 20 25 7 0 -9 4 -18 9 -21 5 -3 8 2 7 11 0 10
7 19 17 21 16 3 18 0 12 -18 -5 -15 -4 -20 4 -16 6 4 11 19 11 33 0 19 4 24
16 19 9 -3 19 -6 24 -6 5 0 23 -12 42 -27 l33 -27 -29 32 c-32 34 -26 42 14
16 22 -14 22 -12 -3 10 -26 24 -54 36 -44 19z"/>
<path d="M1684 1827 c3 -10 11 -48 16 -84 6 -37 15 -74 21 -82 8 -13 9 -13 5
4 -3 11 -10 49 -16 85 -7 36 -16 72 -22 80 -8 12 -8 12 -4 -3z"/>
<path d="M1900 1789 c-17 -13 -18 -17 -5 -10 33 17 51 31 40 31 -5 0 -21 -10
-35 -21z"/>
<path d="M850 1783 c0 -5 12 -20 28 -34 l27 -24 -25 30 c-14 17 -26 32 -27 34
-2 2 -3 0 -3 -6z"/>
<path d="M962 1735 c-1 -22 7 -56 18 -75 21 -39 26 -36 9 7 -6 15 -14 46 -19
68 l-8 40 0 -40z"/>
<path d="M1803 1582 c20 -23 37 -47 37 -52 0 -12 -25 -38 -60 -62 -20 -14 -21
-16 -5 -11 31 9 85 53 85 68 0 18 -46 72 -74 87 -14 7 -9 -3 17 -30z"/>
<path d="M1770 1506 c-25 -18 -56 -45 -69 -59 -41 -45 7 -22 69 33 65 57 64
73 0 26z"/>
<path d="M1555 1469 l-20 -22 25 8 c14 5 43 12 65 16 22 3 33 7 24 8 -9 0 -30
4 -45 7 -22 4 -34 0 -49 -17z"/>
<path d="M1880 1350 c-80 -53 -130 -65 -280 -65 -92 0 -143 4 -160 13 -23 12
-23 12 -7 -2 29 -23 149 -39 235 -31 107 10 191 38 238 79 48 43 34 46 -26 6z"/>
<path d="M1678 1133 c12 -2 32 -2 45 0 12 2 2 4 -23 4 -25 0 -35 -2 -22 -4z"/>
<path d="M1902 1047 c-17 -34 -34 -50 -79 -73 -49 -24 -71 -29 -158 -33 -108
-4 -107 -19 2 -20 113 -2 209 44 244 117 12 24 19 45 17 47 -3 3 -14 -15 -26
-38z"/>
<path d="M2450 849 c0 -6 12 -26 26 -45 25 -32 25 -34 6 -34 -11 0 -22 6 -25
13 -2 6 -3 4 -2 -5 2 -10 -1 -21 -6 -24 -19 -12 -8 -24 12 -13 12 6 32 9 45 6
29 -5 29 -3 2 41 -27 43 -58 76 -58 61z"/>
<path d="M841 744 c0 -11 3 -14 6 -6 3 7 2 16 -1 19 -3 4 -6 -2 -5 -13z"/>
<path d="M552 636 c-41 -29 -48 -36 -36 -36 5 0 25 13 44 30 42 35 38 38 -8 6z"/>
<path d="M2329 593 c-13 -17 -13 -17 6 -3 11 8 22 16 24 17 2 2 0 3 -6 3 -6 0
-17 -8 -24 -17z"/>
<path d="M2882 530 c0 -14 2 -19 5 -12 2 6 2 18 0 25 -3 6 -5 1 -5 -13z"/>
<path d="M1108 503 c17 -2 47 -2 65 0 17 2 3 4 -33 4 -36 0 -50 -2 -32 -4z"/>
<path d="M1271 501 c-9 -6 -10 -11 -2 -15 6 -4 11 -3 11 3 0 5 10 12 23 14 19
4 19 4 2 5 -11 1 -26 -2 -34 -7z"/>
<path d="M860 461 c0 -14 10 -18 60 -25 42 -5 43 -5 10 4 -19 6 -43 15 -52 20
-11 6 -18 7 -18 1z"/>
<path d="M2108 403 c7 -3 16 -2 19 1 4 3 -2 6 -13 5 -11 0 -14 -3 -6 -6z"/>
<path d="M1950 290 c-13 -47 -3 -121 11 -85 11 28 10 56 -1 30 -12 -27 -12 -1
0 50 12 53 4 58 -10 5z"/>
<path d="M2884 319 c-3 -6 -2 -15 3 -20 5 -5 9 -1 10 11 2 22 -2 25 -13 9z"/>
<path d="M2931 294 c0 -11 3 -14 6 -6 3 7 2 16 -1 19 -3 4 -6 -2 -5 -13z"/>
<path d="M2880 254 c-14 -36 -12 -52 4 -29 12 18 18 55 9 55 -2 0 -8 -12 -13
-26z"/>
<path d="M2937 185 c-3 -49 -9 -111 -12 -137 -5 -32 -3 -48 4 -48 6 0 13 10
15 23 10 47 15 213 7 232 -6 14 -10 -8 -14 -70z"/>
<path d="M2633 205 c0 -27 2 -38 4 -22 2 15 2 37 0 50 -2 12 -4 0 -4 -28z"/>
<path d="M2923 185 c0 -27 2 -38 4 -22 2 15 2 37 0 50 -2 12 -4 0 -4 -28z"/>
<path d="M2688 195 c-3 -14 -1 -25 3 -25 5 0 9 11 9 25 0 14 -2 25 -4 25 -2 0
-6 -11 -8 -25z"/>
<path d="M1663 193 c9 -2 23 -2 30 0 6 3 -1 5 -18 5 -16 0 -22 -2 -12 -5z"/>
<path d="M1731 153 c-1 -37 19 -134 31 -147 13 -16 8 33 -12 109 -13 52 -18
62 -19 38z"/>
<path d="M2422 160 c0 -14 2 -19 5 -12 2 6 2 18 0 25 -3 6 -5 1 -5 -13z"/>
<path d="M2680 149 c0 -5 5 -7 10 -4 6 3 10 8 10 11 0 2 -4 4 -10 4 -5 0 -10
-5 -10 -11z"/>
<path d="M1958 103 c6 -2 18 -2 25 0 6 3 1 5 -13 5 -14 0 -19 -2 -12 -5z"/>
<path d="M2680 90 c-11 -7 -5 -8 20 -4 43 8 51 14 19 14 -13 0 -31 -5 -39 -10z"/>
<path d="M1941 70 c0 -8 4 -24 9 -35 5 -13 9 -14 9 -5 0 8 -4 24 -9 35 -5 13
-9 14 -9 5z"/>
<path d="M2741 71 c-1 -9 -9 -11 -28 -7 -27 5 -27 5 -5 -6 12 -6 25 -22 28
-35 7 -27 24 -31 23 -5 -1 24 -17 70 -18 53z"/>
<path d="M2645 43 l-18 -28 27 24 c28 26 31 31 17 31 -5 0 -17 -12 -26 -27z"/>
<path d="M2682 43 c-7 -2 -16 -13 -21 -22 -8 -15 -5 -17 20 -17 21 0 28 4 25
13 -3 7 -1 13 5 13 6 0 7 5 4 10 -7 11 -13 11 -33 3z m8 -23 c0 -5 -4 -10 -10
-10 -5 0 -10 5 -10 10 0 6 5 10 10 10 6 0 10 -4 10 -10z"/>
<path d="M2587 29 c7 -7 15 -10 18 -7 3 3 -2 9 -12 12 -14 6 -15 5 -6 -5z"/>
</g>
</svg>
